<svg xmlns="http://www.w3.org/2000/svg" viewBox="0 0 92.16 105.19"><path d="M649.4,469.22a22.73,22.73,0,0,1,10.36-2.68,17.1,17.1,0,0,1,4,.51A14.92,14.92,0,0,1,669,470a47.29,47.29,0,0,1,5.37,4.81q2.26,2.4,7.07,8.23a79.51,79.51,0,0,0,10.41,10.5q5.6,4.67,9.11,4.67c3.2,0,5.12-1.2,5.73-3.61a6.2,6.2,0,0,0,.28-1.85,9.52,9.52,0,0,0-1.94-5.45,16,16,0,0,0-2.5-3.15c-.06-.12.09-.32.46-.6s.62-.39.74-.32q5.55,3.51,5.55,8.51a8.92,8.92,0,0,1-1.48,4.71,10.16,10.16,0,0,1-9,5.18q-7.95,0-18.5-11.84-1.38-1.67-3.83-4.57t-3.1-3.66q-.65-.74-2.13-2.49c-1-1.18-1.68-2-2.08-2.41l-1.9-2c-.86-.93-1.52-1.59-2-2s-1.11-.9-1.95-1.48a11.22,11.22,0,0,0-2.17-1.25,12.52,12.52,0,0,0-4.72-.93,14.77,14.77,0,0,0-8.32,2.59,11,11,0,0,0-4.86,6.15,15.4,15.4,0,0,1-1.71,4.54,2,2,0,0,1-1.57,1,4.23,4.23,0,0,1-1.94-.6,1.83,1.83,0,0,1-1.11-1.62,5,5,0,0,1,.74-2.68q8.42-13.52,51.24-48-11.65-.19-15.59-.19t-5.87.19q-10.46,1-10.45,6.47a10,10,0,0,0,1.11,4l-.93.74q-.09-.19-1.29-2.13-2.31-3.71-2.36-4.53c0-.56,0-1,0-1.39q0-5.93,10.36-5.92l9.16.19h21.55a.73.73,0,0,1,.09.46c0,.74-.19,1.2-.56,1.39A300.14,300.14,0,0,0,649.4,469.22Z" transform="translate(-636.92 -412.65)" fill="#6a1321"/><path d="M692.65,453.08l-.31-1.83a3,3,0,0,0-1.72-2.32,10,10,0,0,0-7.45-1.24q-6,1.05-8,5.71a8.59,8.59,0,0,0-.83,4.89,11.9,11.9,0,0,0,1.85,4.42q1.47,2.28,7.39,7.44t7.65,8.06a15.25,15.25,0,0,1,2.09,5,13.68,13.68,0,0,1-3,11,22.21,22.21,0,0,1-6.29,5.65,24.33,24.33,0,0,1-8.61,3.14,21.26,21.26,0,0,1-10.08-.77,11.07,11.07,0,0,1-7.32-6.43,14.45,14.45,0,0,1-.63-2.56,13.79,13.79,0,0,1,.27-4.6,10.05,10.05,0,0,1,2.54-5.14q.07-.11.39.12c.42.24.53.5.33.79a6.88,6.88,0,0,0-.94,4.86,11.59,11.59,0,0,0,3.22,6.1,16.2,16.2,0,0,0,6.68,3.81,18.5,18.5,0,0,0,8.83.62q6.48-1.12,8.75-6.4a11.25,11.25,0,0,0,.7-6.18,18.18,18.18,0,0,0-2.15-5.91,56.41,56.41,0,0,0-6-8c-2.94-3.39-4.57-5.29-4.88-5.67a14.78,14.78,0,0,1-3-6.56,11,11,0,0,1,1-6.8,15.44,15.44,0,0,1,4.69-5.7,17.11,17.11,0,0,1,7.41-3.26,12,12,0,0,1,9.88,2.32,4.83,4.83,0,0,1,.86,2.24,5.18,5.18,0,0,1-.18,2.71,21.24,21.24,0,0,0-2,6.26c-.76.7-1.32.89-1.68.58A14,14,0,0,0,692.65,453.08Z" transform="translate(-636.92 -412.65)" fill="#6a1321"/><path d="M639.55,425.25c25.32-21.54,64.55-14.52,81.59,13.84,12.62,20.63,10,47.9-6.5,65.6a53.22,53.22,0,0,1-19,13.14,55.9,55.9,0,0,0,24.45-23.38,54.36,54.36,0,0,0-1.22-54c-16.23-27.39-54-34.29-79.35-15.2Z" transform="translate(-636.92 -412.65)" fill="#a7745a"/></svg>