<svg xmlns="http://www.w3.org/2000/svg" viewBox="0 0 393.12 105.19"><path d="M589.32,430.58c0-.09-.18-.13-.53-.13-6.83,0-11.65.14-14.43.42s-4.83.93-6.11,1.93a12.46,12.46,0,0,0-3.43,5.29.38.38,0,0,1-.26.07c-.39,0-.57-.09-.52-.27l2.61-10.51s.09-.07.26-.07c.44,0,.61.07.52.2a1.81,1.81,0,0,0-.06.52,1,1,0,0,0,.75,1.05,11.38,11.38,0,0,0,3,.26H595a.49.49,0,0,1,.42.29.59.59,0,0,1,0,.56L570.83,468.4l-.2.39c0,.09.18.13.53.13H586.7a10.24,10.24,0,0,0,6.67-2.06,9.51,9.51,0,0,0,3.26-5.84c0-.13.17-.2.39-.2s.33.07.33.2l-.91,8.62a.74.74,0,0,1-.17.42.48.48,0,0,1-.42.23q-9.74-.12-31.29-.13a.41.41,0,0,1-.39-.29.52.52,0,0,1,.06-.56L589.12,431Z" transform="translate(-450.02 -412.65)" fill="#6a1321"/><path d="M620.47,470.23c-.65-.05-1.45-.09-2.38-.13s-2-.07-3.17-.07l-4.57.07c-.83,0-2,.06-3.4.06-.09,0-.13-.13-.13-.39s0-.39.13-.39a13.17,13.17,0,0,0,3.46-.33,2.29,2.29,0,0,0,1.54-1.27,7.57,7.57,0,0,0,.42-2.91V434.63a7.88,7.88,0,0,0-.39-2.88,2.3,2.3,0,0,0-1.47-1.27,11.79,11.79,0,0,0-3.43-.36c-.13,0-.19-.13-.19-.39s.06-.39.19-.39l3.27.06c1.91.09,3.44.13,4.57.13,1.61,0,3.27-.06,5-.19,2.09-.09,3.51-.13,4.25-.13a26.36,26.36,0,0,1,12,2.61,19.85,19.85,0,0,1,8.1,7.12,18.39,18.39,0,0,1,2.88,10.12,21.1,21.1,0,0,1-3,11.21,20.25,20.25,0,0,1-8,7.51,23.41,23.41,0,0,1-11,2.64C623.69,470.42,622.17,470.36,620.47,470.23Zm12.61-3.17a15,15,0,0,0,5.91-6.4,22.32,22.32,0,0,0,2.12-10.16,25.3,25.3,0,0,0-2-10.29,17.26,17.26,0,0,0-5.72-7.25,14.37,14.37,0,0,0-8.59-2.64,22.29,22.29,0,0,0-4.31.32,3.66,3.66,0,0,0-2.22,1.28,4.66,4.66,0,0,0-.72,2.84v29.39a6.59,6.59,0,0,0,.56,3,3.46,3.46,0,0,0,2,1.6,13.72,13.72,0,0,0,4.28.52A17.05,17.05,0,0,0,633.08,467.06Z" transform="translate(-450.02 -412.65)" fill="#6a1321"/><path d="M658.1,469.77c0-.26.06-.39.19-.39a12.81,12.81,0,0,0,3.43-.33,2.15,2.15,0,0,0,1.47-1.27,8.1,8.1,0,0,0,.39-2.91V434.63a7.88,7.88,0,0,0-.39-2.88,2.3,2.3,0,0,0-1.47-1.27,11.79,11.79,0,0,0-3.43-.36c-.13,0-.19-.13-.19-.39s.06-.39.19-.39h26.65c.44,0,.66.19.66.59l.13,8.23c0,.13-.12.2-.36.22s-.38,0-.43-.16a8.59,8.59,0,0,0-2.54-5.49,7.89,7.89,0,0,0-5.49-1.89h-3.33c-1.92,0-3.2.28-3.86.85a4.14,4.14,0,0,0-1,3.2v29.72a4.4,4.4,0,0,0,.89,3.2c.58.57,1.77.85,3.56.85h4.31a8.82,8.82,0,0,0,6.1-2.19,11.45,11.45,0,0,0,3.37-6.24c0-.08.08-.13.26-.13a.75.75,0,0,1,.36.1c.11.07.16.12.16.16a65.26,65.26,0,0,0-.65,8.82,1.14,1.14,0,0,1-.2.75,1,1,0,0,1-.78.23H658.29C658.16,470.16,658.1,470,658.1,469.77ZM680.86,451c-1.07-.89-2.75-1.34-5.06-1.34h-9.54v-1.5h9.67a8.41,8.41,0,0,0,4.9-1.14,4.12,4.12,0,0,0,1.57-3.56c0-.09.11-.13.35-.13s.36,0,.36.13l-.06,5.48.06,2.94c.09,1.4.13,2.49.13,3.27,0,.09-.13.13-.39.13s-.39,0-.39-.13A5.1,5.1,0,0,0,680.86,451Z" transform="translate(-450.02 -412.65)" fill="#6a1321"/><path d="M736.84,471.21a.45.45,0,0,1-.43-.07l-30.76-36.45a16.87,16.87,0,0,0-3.86-3.56,6.61,6.61,0,0,0-3.39-1c-.09,0-.13-.13-.13-.39s0-.39.13-.39l2.55.06c.52.05,1.26.07,2.22.07l3.33-.07q.64-.06,1.5-.06a1.06,1.06,0,0,1,.78.26,7.11,7.11,0,0,1,.79,1l1.57,2.09,25.47,30.71.52,7.57C737.13,471.1,737,471.16,736.84,471.21Zm-32.76-40.37,1.7.13v31.75a8.15,8.15,0,0,0,1.27,5,4.63,4.63,0,0,0,3.89,1.63c.09,0,.13.13.13.39s0,.39-.13.39q-1.7,0-2.61-.06L705,470l-3.53.07c-.66,0-1.61.06-2.88.06-.08,0-.13-.13-.13-.39s0-.39.13-.39a5,5,0,0,0,4.15-1.63,7.87,7.87,0,0,0,1.34-5Zm33,40.17-1.63-2V436.85a8.44,8.44,0,0,0-1.24-5.06,4.5,4.5,0,0,0-3.86-1.67c-.08,0-.13-.13-.13-.39s.05-.39.13-.39l2.62.06c1.3.09,2.41.13,3.33.13s1.91,0,3.4-.13l2.74-.06c.09,0,.13.13.13.39s0,.39-.13.39q-5.36,0-5.36,6.73Z" transform="translate(-450.02 -412.65)" fill="#6a1321"/><path d="M756.21,431.75a2.35,2.35,0,0,0-1.47-1.27,11.84,11.84,0,0,0-3.43-.36c-.13,0-.2-.13-.2-.39s.07-.39.2-.39l3.26.06c1.92.09,3.44.13,4.57.13s2.79,0,4.71-.13l3.2-.06c.09,0,.13.13.13.39s0,.39-.13.39a11,11,0,0,0-3.4.39,2.4,2.4,0,0,0-1.5,1.34,8.1,8.1,0,0,0-.39,2.91v30.11a8.69,8.69,0,0,0,.36,2.94,2.07,2.07,0,0,0,1.43,1.24,13.21,13.21,0,0,0,3.5.33c.13,0,.19.13.19.39s-.06.39-.19.39c-1.4,0-2.48,0-3.27-.06l-4.64-.07-4.57.07q-1.25.06-3.39.06c-.09,0-.13-.13-.13-.39s0-.39.13-.39a13.22,13.22,0,0,0,3.46-.33,2.25,2.25,0,0,0,1.53-1.27,7.35,7.35,0,0,0,.43-2.91V434.63A7.88,7.88,0,0,0,756.21,431.75Zm21,0c0-1.08-1.29-1.63-3.86-1.63-.13,0-.19-.13-.19-.39s.06-.39.19-.39l2.88.06c1.74.09,3.4.13,5,.13s3.18,0,4.84-.13l2.54-.06c.13,0,.2.13.2.39s-.07.39-.2.39a15.22,15.22,0,0,0-5.94,1.37,19.52,19.52,0,0,0-5.88,4L760,452.07l-1.63-.07,16.79-16.91C776.54,433.61,777.24,432.5,777.24,431.75Zm-14,16.2,3.92-3.39,9.67,12.6a96.09,96.09,0,0,0,7,8.66,12.89,12.89,0,0,0,3.75,3,10.68,10.68,0,0,0,3.76.52c.13,0,.19.13.19.39s-.06.39-.19.39H784l-2,.07a3.13,3.13,0,0,1-1.41-.26,4.55,4.55,0,0,1-1.11-1c-.41-.48-1.1-1.37-2.06-2.68-.39-.48-.91-1.17-1.56-2.06s-1.55-2.08-2.68-3.56Z" transform="translate(-450.02 -412.65)" fill="#6a1321"/><path d="M843.15,469.77q0,.39-.33.39c-.83,0-2.11,0-3.85-.13s-3.14-.13-3.92-.13c-1,0-2.25.05-3.73.13s-2.59.13-3.33.13c-.17,0-.26-.13-.26-.39s.09-.39.26-.39a8.52,8.52,0,0,0,3.2-.43,1.52,1.52,0,0,0,1-1.53,7.46,7.46,0,0,0-1-3.07l-14-29.2,2.09-3.13L806.5,461.54a10.08,10.08,0,0,0-.91,3.66,3.46,3.46,0,0,0,1.63,3.13,8.73,8.73,0,0,0,4.7,1.05q.33,0,.33.39t-.33.39c-.78,0-1.91,0-3.39-.13-1.66-.08-3.1-.13-4.31-.13s-2.49.05-4.05.13c-1.4.09-2.53.13-3.4.13-.17,0-.26-.13-.26-.39s.09-.39.26-.39a6.21,6.21,0,0,0,3.1-.72,7.61,7.61,0,0,0,2.45-2.48A35.37,35.37,0,0,0,805,461l13.91-32.07c.05-.13.2-.21.46-.23s.41.06.46.23l15.67,32.33a30.05,30.05,0,0,0,3.82,6.47,4.64,4.64,0,0,0,3.5,1.7Q843.15,469.38,843.15,469.77Zm-33.32-18.09H827.6l.46,1.43h-19Z" transform="translate(-450.02 -412.65)" fill="#6a1321"/><path d="M618.92,481.45c4,0,6.59,2.24,6.82,5.87h-2.87c-.15-2.09-1.63-3.31-4-3.31-2.64,0-4.35,1.33-4.35,3.4,0,1.68,1,2.7,2.93,3.16l3.45.81c3.43.79,5.17,2.64,5.17,5.6,0,3.78-2.93,6.19-7.4,6.19-4.27,0-7.11-2.24-7.29-5.84h2.9c.06,2,1.75,3.28,4.39,3.28s4.55-1.3,4.55-3.39c0-1.66-.9-2.7-2.9-3.17l-3.45-.78c-3.43-.78-5.2-2.76-5.2-5.78C611.69,483.89,614.59,481.45,618.92,481.45Z" transform="translate(-450.02 -412.65)" fill="#a7745a"/><path d="M639,481.83h15.47v2.62h-6.3v18.37h-2.84V484.45H639Z" transform="translate(-450.02 -412.65)" fill="#a7745a"/><path d="M667.23,481.83h3.19l4.67,8.39a15.07,15.07,0,0,1,.7,1.39c.26-.52.32-.69.7-1.39l4.64-8.39h3.11l-7.06,12.45v8.54h-2.84v-8.54Z" transform="translate(-450.02 -412.65)" fill="#a7745a"/><path d="M701.43,500.18h9.23v2.64H698.58v-21h2.85Z" transform="translate(-450.02 -412.65)" fill="#a7745a"/><path d="M728.19,502.82h-2.84v-21h2.84Z" transform="translate(-450.02 -412.65)" fill="#a7745a"/><path d="M744.71,502.82v-21h2.85l10.74,16.23V481.83h2.84v21H758.3l-10.74-16.23v16.23Z" transform="translate(-450.02 -412.65)" fill="#a7745a"/><path d="M779.37,492.46c0,5.08,3,8,7.29,8,3.57,0,6.44-1.83,6.44-6.07v-.61h-7v-2.52h9.69v11.58h-2.38l-.2-2.85c-1.13,1.83-3.69,3.17-6.76,3.17-5.95,0-10-4.3-10-10.77s4.13-10.92,10.31-10.92c4.58,0,8.15,2.65,8.85,6.68h-3c-.78-2.67-3.1-4-5.89-4C782.1,484.15,779.37,487.49,779.37,492.46Z" transform="translate(-450.02 -412.65)" fill="#a7745a"/><path d="M462.51,469.22a22.67,22.67,0,0,1,10.36-2.68,17.09,17.09,0,0,1,4,.51,15,15,0,0,1,5.23,2.91,48,48,0,0,1,5.36,4.81q2.26,2.4,7.08,8.23a78.83,78.83,0,0,0,10.4,10.5q5.59,4.67,9.11,4.67,4.82,0,5.74-3.61a6.52,6.52,0,0,0,.27-1.85,9.45,9.45,0,0,0-1.94-5.45,16,16,0,0,0-2.5-3.15c-.06-.12.1-.32.47-.6s.61-.39.74-.32q5.55,3.51,5.54,8.51a9,9,0,0,1-1.47,4.71,10.19,10.19,0,0,1-9,5.18q-8,0-18.49-11.84l-3.84-4.57q-2.46-2.93-3.1-3.66T484.33,479c-1-1.18-1.68-2-2.08-2.41l-1.89-2c-.87-.93-1.53-1.59-2-2a24,24,0,0,0-1.94-1.48,11.25,11.25,0,0,0-2.18-1.25,12.51,12.51,0,0,0-4.71-.93,14.8,14.8,0,0,0-8.33,2.59,10.93,10.93,0,0,0-4.85,6.15,16,16,0,0,1-1.71,4.54,2.07,2.07,0,0,1-1.58,1,4.23,4.23,0,0,1-1.94-.6A1.83,1.83,0,0,1,450,481a5,5,0,0,1,.74-2.68q8.42-13.52,51.24-48-11.65-.19-15.59-.19c-2.62,0-4.57.06-5.87.19q-10.46,1-10.45,6.47a10,10,0,0,0,1.11,4l-.92.74c-.07-.13-.5-.84-1.3-2.13q-2.31-3.71-2.36-4.53c0-.56,0-1,0-1.39q0-5.93,10.35-5.92l9.16.19h21.55a.73.73,0,0,1,.09.46c0,.74-.18,1.2-.55,1.39A299.15,299.15,0,0,0,462.51,469.22Z" transform="translate(-450.02 -412.65)" fill="#6a1321"/><path d="M505.76,453.08l-.32-1.83a3,3,0,0,0-1.72-2.32,10,10,0,0,0-7.45-1.24c-4,.7-6.68,2.6-8,5.71a8.52,8.52,0,0,0-.84,4.89,11.9,11.9,0,0,0,1.85,4.42q1.47,2.28,7.4,7.44t7.64,8.06a15.25,15.25,0,0,1,2.09,5,13.68,13.68,0,0,1-3,11,21.94,21.94,0,0,1-6.29,5.65,24.35,24.35,0,0,1-8.6,3.14,21.3,21.3,0,0,1-10.09-.77,11.07,11.07,0,0,1-7.32-6.43,14.45,14.45,0,0,1-.63-2.56,13.85,13.85,0,0,1,.28-4.6,10,10,0,0,1,2.53-5.14c.05-.07.18,0,.4.12.41.24.52.5.32.79a6.93,6.93,0,0,0-.94,4.86,11.54,11.54,0,0,0,3.23,6.1,16.09,16.09,0,0,0,6.67,3.81,18.53,18.53,0,0,0,8.84.62q6.46-1.12,8.74-6.4a11.35,11.35,0,0,0,.71-6.18,18.44,18.44,0,0,0-2.16-5.91,55.63,55.63,0,0,0-6-8c-2.93-3.39-4.56-5.29-4.88-5.67a14.89,14.89,0,0,1-3-6.56,11,11,0,0,1,1-6.8,15.44,15.44,0,0,1,4.69-5.7,17.21,17.21,0,0,1,7.41-3.26,12.06,12.06,0,0,1,9.89,2.32,5.06,5.06,0,0,1,.86,2.24,5.18,5.18,0,0,1-.19,2.71,21.24,21.24,0,0,0-2,6.26c-.75.7-1.31.89-1.68.58A14.11,14.11,0,0,0,505.76,453.08Z" transform="translate(-450.02 -412.65)" fill="#6a1321"/><path d="M452.65,425.25c25.33-21.54,64.55-14.52,81.59,13.84,12.62,20.63,10,47.9-6.5,65.6a53.13,53.13,0,0,1-19,13.14,55.85,55.85,0,0,0,24.45-23.38,54.33,54.33,0,0,0-1.22-54c-16.22-27.39-54-34.29-79.35-15.2Z" transform="translate(-450.02 -412.65)" fill="#a7745a"/></svg>